<svg width="192" height="48" viewBox="0 0 192 48" fill="none" xmlns="http://www.w3.org/2000/svg">
<g clip-path="url(#clip0_215_196)">
<path d="M15.8 18.5L21.8 20.1L21.4 22L12 19.5L2.6 22L2.1 20.1L8.1 18.5L2 16.9L2.5 15L11.9 17.5L21.3 15L21.8 16.9L15.8 18.5ZM15.97 7.92C15.81 7.7 15.61 7.5 15.4 7.33C14.95 6.9 14.4 6.59 13.96 6.13C12.9 5.08 12.69 3.34 13.34 2C12.69 2.17 12.08 2.54 11.57 2.95C9.74 4.46 9.01 7.1 9.9 9.38C9.9 9.45 9.94 9.53 9.94 9.62C9.94 9.78 9.83 9.92 9.69 10C9.5829 10.0289 9.46932 10.022 9.36646 9.98052C9.2636 9.93901 9.17708 9.86511 9.12 9.77C8.32 8.74 8.19 7.26 8.74 6.07C7.55 7.06 6.9 8.72 7.01 10.29C7.03 10.65 7.08 11 7.2 11.36C7.31 11.8 7.49 12.23 7.72 12.61C8.47 13.86 9.8 14.76 11.22 14.94C12.74 15.14 14.36 14.85 15.53 13.79C16.83 12.59 17.3 10.67 16.61 9L16.51 8.83C16.37 8.5 16.18 8.2 15.94 7.93L15.97 7.92ZM13.73 12.47C13.53 12.65 13.21 12.83 12.95 12.91C12.16 13.19 11.36 12.79 10.9 12.31C11.74 12.11 12.24 11.47 12.4 10.83C12.51 10.25 12.29 9.78 12.19 9.22C12.11 8.69 12.12 8.23 12.32 7.73C12.45 8 12.59 8.28 12.76 8.5C13.31 9.22 14.17 9.54 14.35 10.5C14.37 10.63 14.4 10.72 14.4 10.83C14.4 11.43 14.16 12.07 13.72 12.47" fill="black"/>
<path d="M66.5 7C67.33 7 68 6.33 68 5.5C68 4.67 67.33 3 66.5 3C65.67 3 65 4.67 65 5.5C65 6.33 65.67 7 66.5 7ZM66.5 5.25C66.78 5.25 67 5.47 67 5.75C67 6.03 66.78 6.25 66.5 6.25C66.22 6.25 66 6.03 66 5.75C66 5.47 66.22 5.25 66.5 5.25ZM60.5 6C61.33 6 62 5.33 62 4.5C62 3.67 61.33 2 60.5 2C59.67 2 59 3.67 59 4.5C59 5.33 59.67 6 60.5 6ZM60.5 4.25C60.78 4.25 61 4.47 61 4.75C61 5.03 60.78 5.25 60.5 5.25C60.22 5.25 60 5.03 60 4.75C60 4.47 60.22 4.25 60.5 4.25ZM54.5 7C55.33 7 56 6.33 56 5.5C56 4.67 55.33 3 54.5 3C53.67 3 53 4.67 53 5.5C53 6.33 53.67 7 54.5 7ZM54.5 5.25C54.78 5.25 55 5.47 55 5.75C55 6.03 54.78 6.25 54.5 6.25C54.22 6.25 54 6.03 54 5.75C54 5.47 54.22 5.25 54.5 5.25ZM69 11C69 11.55 68.55 12 68 12H67.5V14C67.5 15.11 66.61 16 65.5 16H61.5V20H62.5C63.0304 20 63.5391 20.2107 63.9142 20.5858C64.2893 20.9609 64.5 21.4696 64.5 22H56.5C56.5 20.9 57.4 20 58.5 20H59.5V16H55.5C54.9696 16 54.4609 15.7893 54.0858 15.4142C53.7107 15.0391 53.5 14.5304 53.5 14V12H53C52.45 12 52 11.55 52 11C52 10.45 52.45 10 53 10V9C53 8.45 53.45 8 54 8H55C55.55 8 56 8.45 56 9V10C56.55 10 57 10.45 57 11C57 11.55 56.55 12 56 12H55.5V14H59.5V12H59C58.45 12 58 11.55 58 11C58 10.45 58.45 10 59 10V8C59 7.45 59.45 7 60 7H61C61.55 7 62 7.45 62 8V10C62.55 10 63 10.45 63 11C63 11.55 62.55 12 62 12H61.5V14H65.5V12H65C64.45 12 64 11.55 64 11C64 10.45 64.45 10 65 10V9C65 8.45 65.45 8 66 8H67C67.55 8 68 8.45 68 9V10C68.55 10 69 10.45 69 11Z" fill="black"/>
<path d="M117 16.5007C117 16.6814 116.951 16.8588 116.858 17.014C116.765 17.1691 116.632 17.2962 116.473 17.3817L108.566 21.8247C108.4 21.9396 108.202 22.0011 108 22.0011C107.798 22.0011 107.6 21.9396 107.434 21.8247L99.527 17.3817C99.3677 17.2962 99.2346 17.1691 99.1418 17.014C99.049 16.8588 99 16.6814 99 16.5007V7.50067C99 7.3199 99.049 7.14251 99.1418 6.98738C99.2346 6.83225 99.3677 6.70517 99.527 6.61967L107.434 2.17667C107.6 2.06163 107.798 2 108 2C108.202 2 108.4 2.06163 108.566 2.17667L116.473 6.61967C116.632 6.70517 116.765 6.83225 116.858 6.98738C116.951 7.14251 117 7.3199 117 7.50067V16.5007ZM101.5 14.3167C100.948 14.0037 100.5 14.1987 100.5 14.7507C100.5 15.3027 100.948 16.0037 101.5 16.3167C102.052 16.6297 102.5 16.4347 102.5 15.8827C102.5 15.3307 102.052 14.6297 101.5 14.3167ZM101.5 10.3167C100.948 10.0037 100.5 10.1987 100.5 10.7507C100.5 11.3027 100.948 12.0037 101.5 12.3167C102.052 12.6297 102.5 12.4347 102.5 11.8827C102.5 11.3307 102.052 10.6297 101.5 10.3167ZM105.5 16.5807C104.948 16.2677 104.5 16.4627 104.5 17.0147C104.5 17.5667 104.948 18.2677 105.5 18.5807C106.052 18.8927 106.5 18.6987 106.5 18.1467C106.5 17.5937 106.052 16.8927 105.5 16.5807ZM103.5 13.4487C102.948 13.1357 102.5 13.3307 102.5 13.8827C102.5 14.4347 102.948 15.1357 103.5 15.4487C104.052 15.7607 104.5 15.5667 104.5 15.0147C104.5 14.4617 104.052 13.7607 103.5 13.4487ZM105.5 12.5807C104.948 12.2677 104.5 12.4617 104.5 13.0147C104.5 13.5667 104.948 14.2677 105.5 14.5807C106.052 14.8927 106.5 14.6987 106.5 14.1467C106.5 13.5937 106.052 12.8927 105.5 12.5807ZM114.5 14.3167C113.948 14.6297 113.5 15.3307 113.5 15.8827C113.5 16.4347 113.948 16.6287 114.5 16.3167C115.052 16.0037 115.5 15.3027 115.5 14.7507C115.5 14.1987 115.052 14.0037 114.5 14.3167ZM114.5 10.3167C113.948 10.6297 113.5 11.3307 113.5 11.8827C113.5 12.4347 113.948 12.6297 114.5 12.3167C115.052 12.0037 115.5 11.3027 115.5 10.7507C115.5 10.1987 115.052 10.0037 114.5 10.3167ZM110.5 16.5807C109.948 16.8927 109.5 17.5947 109.5 18.1467C109.5 18.6987 109.948 18.8927 110.5 18.5807C111.052 18.2677 111.5 17.5667 111.5 17.0147C111.5 16.4627 111.052 16.2677 110.5 16.5807ZM110.5 12.5807C109.948 12.8927 109.5 13.5947 109.5 14.1467C109.5 14.6987 109.948 14.8927 110.5 14.5807C111.052 14.2677 111.5 13.5667 111.5 13.0147C111.5 12.4627 111.052 12.2677 110.5 12.5807ZM112.492 7.77067C113.039 7.44967 113.094 6.96467 112.616 6.68867C112.138 6.41267 111.306 6.44867 110.76 6.77167C110.213 7.09367 110.158 7.57867 110.636 7.85467C111.114 8.13067 111.946 8.09267 112.492 7.77067ZM105.067 8.10367C105.614 7.78167 105.67 7.29667 105.191 7.02067C104.713 6.74467 103.882 6.78167 103.335 7.10367C102.788 7.42567 102.733 7.91067 103.211 8.18667C103.689 8.46267 104.521 8.42667 105.067 8.10367ZM108.78 7.93767C109.326 7.61567 109.382 7.13067 108.904 6.85467C108.425 6.57867 107.594 6.61567 107.047 6.93767C106.501 7.25967 106.445 7.74467 106.923 8.02067C107.402 8.29667 108.233 8.25967 108.78 7.93767Z" fill="black"/>
<path d="M156 2C153.613 2 151.324 2.94821 149.636 4.63604C147.948 6.32387 147 8.61305 147 11V22L150 19L153 22L156 19L159 22L162 19L165 22V11C165 8.61305 164.052 6.32387 162.364 4.63604C160.676 2.94821 158.387 2 156 2ZM153 8C153.53 8 154.039 8.21071 154.414 8.58579C154.789 8.96086 155 9.46957 155 10C155 10.5304 154.789 11.0391 154.414 11.4142C154.039 11.7893 153.53 12 153 12C152.47 12 151.961 11.7893 151.586 11.4142C151.211 11.0391 151 10.5304 151 10C151 9.46957 151.211 8.96086 151.586 8.58579C151.961 8.21071 152.47 8 153 8ZM159 8C159.53 8 160.039 8.21071 160.414 8.58579C160.789 8.96086 161 9.46957 161 10C161 10.5304 160.789 11.0391 160.414 11.4142C160.039 11.7893 159.53 12 159 12C158.47 12 157.961 11.7893 157.586 11.4142C157.211 11.0391 157 10.5304 157 10C157 9.46957 157.211 8.96086 157.586 8.58579C157.961 8.21071 158.47 8 159 8Z" fill="black"/>
<path d="M29.08 29H45.08V33H44.08V34H38.08C37.8148 34 37.5604 34.1054 37.3729 34.2929C37.1854 34.4804 37.08 34.7348 37.08 35V36C37.08 36.5304 36.8693 37.0391 36.4942 37.4142C36.1191 37.7893 35.6104 38 35.08 38H31.7C31.32 38 30.97 38.22 30.8 38.56L28.35 43.45C28.18 43.79 27.84 44 27.46 44H24.08C24.08 44 21.08 44 25.08 38C25.08 38 28.08 34 24.08 34V29H25.08L25.58 28H28.58L29.08 29ZM36.08 36V35C36.08 34.7348 35.9746 34.4804 35.7871 34.2929C35.5996 34.1054 35.3452 34 35.08 34H34.08C34.08 34 33.08 35 34.08 36C33.5496 36 33.0409 35.7893 32.6658 35.4142C32.2907 35.0391 32.08 34.5304 32.08 34C31.8148 34 31.5604 34.1054 31.3729 34.2929C31.1854 34.4804 31.08 34.7348 31.08 35V36C31.08 36.2652 31.1854 36.5196 31.3729 36.7071C31.5604 36.8946 31.8148 37 32.08 37H35.08C35.3452 37 35.5996 36.8946 35.7871 36.7071C35.9746 36.5196 36.08 36.2652 36.08 36Z" fill="black"/>
<path d="M82 45.35L80.55 44.03C75.4 39.36 72 36.27 72 32.5C72 29.41 74.42 27 77.5 27C79.24 27 80.91 27.81 82 29.08C83.09 27.81 84.76 27 86.5 27C89.58 27 92 29.41 92 32.5C92 36.27 88.6 39.36 83.45 44.03L82 45.35Z" fill="black"/>
<path d="M132.18 31.66L138.32 30.97L134.68 36L138.36 40.97L132.18 40.32L129.71 46L127.18 40.34L121.04 41.03L124.68 36L121 31.03L127.18 31.68L129.65 26L132.18 31.66Z" fill="black"/>
<path d="M172.92 29H171L180 38L181 37.06M185.96 43.12L185.12 43.96C185.027 44.0527 184.918 44.1263 184.797 44.1764C184.676 44.2266 184.546 44.2524 184.415 44.2524C184.284 44.2524 184.154 44.2266 184.033 44.1764C183.912 44.1263 183.803 44.0527 183.71 43.96L180.59 40.84L177.91 43.5L176.5 42.09L177.92 40.67L169 31.75V27H173.75L182.67 35.92L184.09 34.5L185.5 35.91L182.83 38.58L185.95 41.7C186.35 42.1 186.35 42.73 185.96 43.12Z" fill="black"/>
</g>
<defs>
<clipPath id="clip0_215_196">
<rect width="192" height="48" fill="white"/>
</clipPath>
</defs>
</svg>
